<svg width="24" height="25" viewBox="0 0 24 25" fill="none" xmlns="http://www.w3.org/2000/svg">
<path d="M5.20718 3.77233C4.82254 3.7728 4.44678 3.88793 4.12789 4.103C3.809 4.31807 3.56146 4.62333 3.4169 4.97976C3.27234 5.3362 3.23731 5.72764 3.3163 6.10408C3.39529 6.48052 3.5847 6.82487 3.86034 7.09314L9.26281 12.4956L3.86034 17.8981C3.6747 18.0763 3.52649 18.2898 3.42438 18.526C3.32228 18.7623 3.26834 19.0165 3.26573 19.2738C3.26311 19.5312 3.31186 19.7865 3.40914 20.0247C3.50641 20.263 3.65025 20.4794 3.83223 20.6614C4.01421 20.8434 4.23066 20.9872 4.46893 21.0845C4.70719 21.1818 4.96247 21.2305 5.21981 21.2279C5.47715 21.2253 5.73138 21.1714 5.96762 21.0693C6.20385 20.9672 6.41734 20.819 6.59558 20.6333L11.998 15.2308L17.4005 20.6333C17.5787 20.819 17.7922 20.9672 18.0285 21.0693C18.2647 21.1714 18.5189 21.2253 18.7763 21.2279C19.0336 21.2306 19.2889 21.1818 19.5272 21.0845C19.7654 20.9872 19.9819 20.8434 20.1639 20.6614C20.3458 20.4795 20.4897 20.263 20.587 20.0247C20.6842 19.7865 20.733 19.5312 20.7304 19.2738C20.7278 19.0165 20.6738 18.7623 20.5717 18.526C20.4696 18.2898 20.3214 18.0763 20.1357 17.8981L14.7333 12.4956L20.1357 7.09314C20.4153 6.82144 20.6062 6.47164 20.6835 6.08958C20.7608 5.70751 20.7208 5.31101 20.5689 4.95203C20.417 4.59305 20.1602 4.28834 19.8321 4.07783C19.504 3.86732 19.12 3.76083 18.7303 3.77233C18.2278 3.7873 17.7509 3.99732 17.4005 4.35791L11.998 9.76037L6.59558 4.35791C6.4151 4.17238 6.19922 4.02496 5.96074 3.92438C5.72225 3.82379 5.46601 3.77209 5.20718 3.77233Z" fill="rgb(28, 28, 28)"/>
</svg>
